HIERARCHY
ROOT Hips
{
	OFFSET 0.000000 0.000000 0.000000
	CHANNELS 6 Xposition Yposition Zposition Zrotation Yrotation Xrotation 
	JOINT LeftUpLeg_virtual
	{
		OFFSET 0.000000 0.000000 0.000000
		CHANNELS 3 Zrotation Yrotation Xrotation
		JOINT LeftUpLeg
		{
			OFFSET 8.479694 -4.795517 -0.379053
			CHANNELS 3 Zrotation Yrotation Xrotation
			JOINT LeftLeg
			{
				OFFSET 0.485052 -32.551468 0.112863
				CHANNELS 3 Zrotation Yrotation Xrotation
				JOINT LeftFoot
				{
					OFFSET 0.438033 -32.635670 -3.012641
					CHANNELS 3 Zrotation Yrotation Xrotation
					JOINT LeftToeBase
					{
						OFFSET 0.970169 -13.225353 11.864223
						CHANNELS 3 Zrotation Yrotation Xrotation
						End Site
						{
							OFFSET 0.000000 0.000000 0.000000
						}
					}
				}
			}
		}
	}
	JOINT RightUpLeg_virtual
	{
		OFFSET 0.000000 0.000000 0.000000
		CHANNELS 3 Zrotation Yrotation Xrotation
		JOINT RightUpLeg
		{
			OFFSET -8.479694 -4.795517 -0.379053
			CHANNELS 3 Zrotation Yrotation Xrotation
			JOINT RightLeg
			{
				OFFSET -0.484100 -32.551483 0.112903
				CHANNELS 3 Zrotation Yrotation Xrotation
				JOINT RightFoot
				{
					OFFSET -0.438985 -32.635651 -3.012681
					CHANNELS 3 Zrotation Yrotation Xrotation
					JOINT RightToeBase
					{
						OFFSET -0.970169 -13.225354 11.864223
						CHANNELS 3 Zrotation Yrotation Xrotation
						End Site
						{
							OFFSET 0.000000 0.000000 0.000000
						}
					}
				}
			}
		}
	}
	JOINT Spine_virtual
	{
		OFFSET 0.000000 0.000000 0.000000
		CHANNELS 3 Zrotation Yrotation Xrotation
		JOINT Spine
		{
			OFFSET 0.000000 7.722015 1.166203
			CHANNELS 3 Zrotation Yrotation Xrotation
			JOINT Spine1
			{
				OFFSET 0.000000 12.024086 0.248766
				CHANNELS 3 Zrotation Yrotation Xrotation
				JOINT Spine2
				{
					OFFSET -0.000000 11.503036 -0.491240
					CHANNELS 3 Zrotation Yrotation Xrotation
					JOINT Neck_virtual
					{
						OFFSET 0.000000 0.000000 0.000000
						CHANNELS 3 Zrotation Yrotation Xrotation
						JOINT Neck
						{
							OFFSET 0.000000 18.430687 -3.123054
							CHANNELS 3 Zrotation Yrotation Xrotation
							JOINT Head
							{
								OFFSET -0.000000 9.051071 1.034021
								CHANNELS 3 Zrotation Yrotation Xrotation
								End Site
								{
									OFFSET 0.000000 0.000000 0.000000
								}
							}
						}
					}
					JOINT LeftShoulder_virtual
					{
						OFFSET 0.000000 0.000000 0.000000
						CHANNELS 3 Zrotation Yrotation Xrotation
						JOINT LeftShoulder
						{
							OFFSET 6.197824 13.665230 -4.064723
							CHANNELS 3 Zrotation Yrotation Xrotation
							JOINT LeftArm
							{
								OFFSET 7.778132 -0.187073 -1.709282
								CHANNELS 3 Zrotation Yrotation Xrotation
								JOINT LeftForeArm
								{
									OFFSET 21.954697 0.000000 -2.041093
									CHANNELS 3 Zrotation Yrotation Xrotation
									JOINT LeftHand
									{
										OFFSET 22.992908 0.000000 -0.870901
										CHANNELS 3 Zrotation Yrotation Xrotation
										End Site
										{
											OFFSET 0.000000 0.000000 0.000000
										}
									}
								}
							}
						}
					}
					JOINT RightShoulder_virtual
					{
						OFFSET 0.000000 0.000000 0.000000
						CHANNELS 3 Zrotation Yrotation Xrotation
						JOINT RightShoulder
						{
							OFFSET -6.197824 13.665230 -4.064723
							CHANNELS 3 Zrotation Yrotation Xrotation
							JOINT RightArm
							{
								OFFSET -7.778132 -0.187073 -1.709282
								CHANNELS 3 Zrotation Yrotation Xrotation
								JOINT RightForeArm
								{
									OFFSET -21.954697 0.000000 -2.041093
									CHANNELS 3 Zrotation Yrotation Xrotation
									JOINT RightHand
									{
										OFFSET -22.992908 0.000000 -0.870901
										CHANNELS 3 Zrotation Yrotation Xrotation
										End Site
										{
											OFFSET 0.000000 0.000000 0.000000
										}
									}
								}
							}
						}
					}
				}
			}
		}
	}
}
MOTION
Frames: 14
Frame Time: 0.033333
12.447238 81.787643 16.272648 179.933930 3.699738 179.593499 -3.910926 0.623315 11.076294 -0.567092 2.359891 -23.445382 8.073406 7.978745 28.114131 -0.359559 -3.278779 -5.265621 0.000000 0.000000 0.000000 -0.220842 -3.350396 10.902205 -0.028092 -7.790140 -17.151843 -1.009230 0.146784 27.490265 8.426242 8.526620 -11.229048 0.000000 0.000000 0.000000 3.386659 1.468621 1.246695 -5.910662 0.380430 -1.035668 1.944831 -3.297753 4.676090 0.048816 -0.100869 -0.125692 1.755986 -2.205571 5.034364 0.430388 2.864682 -15.198870 0.000000 0.000000 0.000000 2.955214 -1.399918 2.625551 7.604766 1.369866 -4.649171 -21.779615 6.185967 -37.058154 -4.595497 -19.529599 -3.960270 0.000000 0.000000 0.000000 -0.548378 -0.220310 1.948348 11.012913 -6.013336 -3.442957 13.883577 -6.794186 -41.878212 -0.232640 23.929527 -3.301310 0.000000 0.000000 0.000000 
12.489458 81.783730 16.270229 179.852910 3.341587 179.657512 -3.795019 0.891045 11.098422 -0.525634 2.845648 -23.340764 8.410295 8.367075 28.457046 -0.129147 -3.006998 -4.888426 0.000000 0.000000 0.000000 -0.196989 -4.412312 10.656874 0.208987 -8.370800 -17.335526 -0.977976 -0.361039 28.356724 8.242172 8.360088 -11.832037 0.000000 0.000000 0.000000 3.365571 1.399857 1.105789 -5.874572 0.368471 -1.047053 1.874844 -3.314293 4.710183 -0.020748 -0.116901 0.000330 1.804783 -2.102936 5.017566 0.383561 2.993143 -15.156046 0.000000 0.000000 0.000000 2.958747 -1.423981 2.607197 7.546780 1.361597 -4.747508 -21.903218 6.049995 -37.094522 -4.587933 -19.614838 -3.815291 0.000000 0.000000 0.000000 -0.488409 -0.319550 1.868882 11.004524 -6.084808 -3.665735 13.785746 -6.669005 -41.799948 -0.170920 24.033948 -3.186486 0.000000 0.000000 0.000000 
12.549676 81.785141 16.279032 179.848634 3.451713 179.728245 -3.797715 0.844286 11.035421 -0.486641 2.835381 -23.312163 8.402764 8.380426 28.413326 -0.146186 -2.999749 -4.903844 0.000000 0.000000 0.000000 -0.204086 -4.398873 10.563919 0.255624 -8.360253 -17.393049 -0.978708 -0.323235 28.456252 8.255662 8.310706 -11.826927 0.000000 0.000000 0.000000 3.294755 1.385804 0.994111 -5.837108 0.369306 -1.038755 1.866174 -3.294297 4.660148 0.073872 -0.102812 0.005303 1.793381 -2.089656 4.995967 0.519179 2.987273 -15.144727 0.000000 0.000000 0.000000 2.873726 -1.467823 2.542981 7.422486 1.436430 -4.790108 -21.945294 6.192534 -36.993097 -4.608405 -19.437750 -3.942345 0.000000 0.000000 0.000000 -0.653307 -0.196833 1.805894 11.068279 -5.994668 -3.429668 13.751682 -6.452487 -41.733477 -0.253430 24.197540 -3.337898 0.000000 0.000000 0.000000 
12.620201 81.792908 16.283081 179.849714 3.668097 179.747056 -3.811645 0.854654 10.951876 -0.423774 2.856780 -23.233770 8.409605 8.386169 28.432274 -0.156905 -2.969530 -4.887274 0.000000 0.000000 0.000000 -0.219942 -4.272807 10.514411 0.322521 -8.296376 -17.393623 -0.982676 -0.294467 28.496859 8.262445 8.211493 -11.782988 0.000000 0.000000 0.000000 3.245766 1.451528 0.942348 -5.737890 0.406383 -0.967059 1.822274 -3.268040 4.648285 0.038777 -0.083210 -0.005216 1.766751 -2.049367 4.995481 0.455805 2.860238 -15.088597 0.000000 0.000000 0.000000 2.838739 -1.394487 2.586579 7.356395 1.540426 -4.727271 -22.036038 6.035325 -37.048015 -4.559626 -19.138800 -3.979795 0.000000 0.000000 0.000000 -0.637700 -0.240764 1.821614 11.064789 -5.898572 -3.461400 13.662275 -6.181689 -41.672897 -0.133734 24.263240 -3.221005 0.000000 0.000000 0.000000 
12.695527 81.799881 16.288719 179.839905 3.806736 179.762314 -3.847339 0.876265 10.856727 -0.347529 2.900526 -23.141331 8.413559 8.387477 28.412839 -0.155172 -2.917780 -4.900030 0.000000 0.000000 0.000000 -0.241794 -4.191188 10.449413 0.401031 -8.196755 -17.411330 -0.992341 -0.252070 28.593897 8.264456 8.072495 -11.747568 0.000000 0.000000 0.000000 3.157350 1.493269 0.896436 -5.619411 0.397222 -0.887628 1.797236 -3.253996 4.616836 0.068667 -0.066383 -0.008741 1.686085 -2.078049 4.962228 0.400197 2.736854 -15.044936 0.000000 0.000000 0.000000 2.745948 -1.383408 2.535733 7.221395 1.577589 -4.718091 -22.064689 6.108738 -37.050225 -4.499306 -18.776439 -4.303290 0.000000 0.000000 0.000000 -0.708522 -0.198871 1.773612 10.975390 -5.809246 -3.430320 13.836935 -6.047453 -41.757256 -0.132660 24.452178 -3.310941 0.000000 0.000000 0.000000 
12.787119 81.805885 16.296644 179.820890 3.836329 179.716074 -3.894108 0.903800 10.782055 -0.262142 2.963789 -23.030845 8.432154 8.385037 28.435898 -0.148133 -2.861589 -4.911000 0.000000 0.000000 0.000000 -0.265786 -4.200992 10.422502 0.477371 -8.083159 -17.410524 -1.004075 -0.201323 28.695462 8.260970 7.900467 -11.740215 0.000000 0.000000 0.000000 3.072485 1.507100 0.914702 -5.461495 0.345526 -0.747420 1.713506 -3.280850 4.560259 0.009973 -0.092745 -0.082494 1.725485 -2.006651 4.891645 0.416424 2.522147 -15.045314 0.000000 0.000000 0.000000 2.741626 -1.341904 2.552355 7.243953 1.613310 -4.534286 -22.173360 6.032738 -36.924378 -4.424238 -18.434658 -4.126185 0.000000 0.000000 0.000000 -0.681016 -0.223329 1.737253 11.046517 -5.795899 -3.327154 14.029466 -6.059643 -41.762615 -0.122758 24.602796 -3.286287 0.000000 0.000000 0.000000 
12.883957 81.813126 16.324858 179.807640 3.885009 179.756208 -3.941819 0.916572 10.691499 -0.164016 3.042956 -23.000513 8.425362 8.381049 28.404103 -0.126903 -2.804989 -4.946351 0.000000 0.000000 0.000000 -0.265416 -4.157906 10.375164 0.564696 -7.986854 -17.500024 -1.009460 -0.142507 28.827845 8.292858 7.747887 -11.720851 0.000000 0.000000 0.000000 2.944368 1.486560 0.849133 -5.274830 0.236368 -0.733064 1.687543 -3.335147 4.593845 0.082361 -0.138079 0.017220 1.600910 -2.098993 4.862703 0.325902 2.386727 -14.913877 0.000000 0.000000 0.000000 2.621960 -1.355607 2.411573 7.319874 1.594203 -4.695987 -22.318482 6.219250 -36.498253 -4.240433 -18.428378 -4.086511 0.000000 0.000000 0.000000 -0.799665 -0.177687 1.684394 11.166548 -5.681401 -3.179183 14.430832 -6.143655 -41.960755 -0.132397 24.968754 -3.343946 0.000000 0.000000 0.000000 
12.980688 81.822861 16.354250 179.797476 4.470714 179.771931 -3.989956 0.952427 10.680002 -0.061801 3.154379 -22.992401 8.432413 8.401919 28.447419 -0.107487 -2.771305 -4.967879 0.000000 0.000000 0.000000 -0.266847 -3.990419 10.363040 0.623620 -7.852388 -17.654540 -1.007516 -0.018718 28.956587 8.349552 7.604033 -11.636309 0.000000 0.000000 0.000000 2.847769 1.663053 0.870116 -5.052554 0.340076 -0.692515 1.600751 -3.261572 4.639284 0.014780 -0.072490 -0.054832 1.615274 -2.048421 4.869134 0.261320 2.199510 -14.799994 0.000000 0.000000 0.000000 2.624878 -1.365271 2.459203 7.389722 1.409056 -4.441622 -22.464243 6.019255 -36.141297 -3.966427 -18.631035 -4.085583 0.000000 0.000000 0.000000 -0.748059 -0.224610 1.680989 11.360926 -5.660673 -3.022125 14.963645 -6.306291 -42.021434 -0.177031 25.339269 -3.357884 0.000000 0.000000 0.000000 
13.075716 81.827888 16.385853 179.779731 4.777149 179.781125 -4.043088 0.948566 10.713396 0.042546 3.239943 -23.070139 8.429716 8.419811 28.496304 -0.087809 -2.764461 -5.007115 0.000000 0.000000 0.000000 -0.269797 -3.887475 10.402483 0.687908 -7.760766 -17.839541 -0.998050 0.088557 29.099082 8.408920 7.477691 -11.575651 0.000000 0.000000 0.000000 2.715371 1.780254 0.907905 -4.800508 0.351929 -0.685452 1.565734 -3.264834 4.615308 0.086291 -0.070381 -0.021338 1.487900 -2.143072 4.808918 0.213006 1.942020 -14.660315 0.000000 0.000000 0.000000 2.479077 -1.422738 2.399088 7.462703 1.212292 -4.277486 -22.589343 5.687166 -35.658177 -3.668917 -19.073909 -3.775382 0.000000 0.000000 0.000000 -0.856488 -0.368499 1.692160 11.599283 -5.594255 -2.730103 15.555780 -6.483588 -41.862147 -0.263322 25.846892 -3.451652 0.000000 0.000000 0.000000 
13.179759 81.830719 16.421230 179.769568 5.252608 179.782969 -4.081316 0.973978 10.819253 0.151538 3.356002 -23.213294 8.422568 8.441373 28.561303 -0.061775 -2.778557 -5.026932 0.000000 0.000000 0.000000 -0.263774 -3.614004 10.522204 0.774514 -7.683176 -18.060063 -0.982395 0.181240 29.199902 8.456721 7.356952 -11.552789 0.000000 0.000000 0.000000 2.588154 1.908377 0.963652 -4.550373 0.420763 -0.729079 1.491708 -3.226965 4.674965 0.070284 -0.038030 -0.091051 1.421755 -2.134269 4.806202 0.148046 1.586490 -14.424344 0.000000 0.000000 0.000000 2.417402 -1.409918 2.537760 7.517456 1.010545 -4.064640 -22.754499 5.277469 -35.241444 -3.279420 -19.514508 -3.290040 0.000000 0.000000 0.000000 -0.930480 -0.272774 1.664430 11.878908 -5.588772 -2.539003 16.093674 -6.720532 -41.536655 -0.332191 26.313201 -3.500595 0.000000 0.000000 0.000000 
13.317865 81.837997 16.455793 179.755785 5.461159 179.785783 -4.101245 0.910228 10.965409 0.273636 3.450757 -23.420514 8.406362 8.452317 28.640078 -0.053916 -2.831048 -5.004687 0.000000 0.000000 0.000000 -0.250188 -3.660047 10.644883 0.882177 -7.584493 -18.367316 -0.964931 0.306067 29.400338 8.447686 7.220639 -11.479433 0.000000 0.000000 0.000000 2.454647 1.930634 1.049850 -4.305319 0.479122 -0.791339 1.473942 -3.252750 4.606575 0.065061 -0.064316 0.025667 1.277801 -2.201213 4.858282 -0.078254 1.416991 -14.125238 0.000000 0.000000 0.000000 2.372962 -1.382507 2.399260 7.581400 0.877641 -3.857954 -23.103576 5.088054 -34.662793 -2.506160 -20.047389 -2.944701 0.000000 0.000000 0.000000 -0.978330 -0.237295 1.626681 12.181409 -5.415373 -2.338396 16.509486 -6.755623 -41.358551 -0.384366 26.742117 -3.550185 0.000000 0.000000 0.000000 
13.486791 81.854843 16.477049 179.764377 5.551547 179.831381 -4.081818 0.814982 11.116596 0.407619 3.552815 -23.666237 8.385007 8.468571 28.715826 -0.056002 -2.904230 -4.944054 0.000000 0.000000 0.000000 -0.207611 -3.617324 10.804070 1.026290 -7.536068 -18.678588 -0.934032 0.372236 29.535118 8.391320 7.064464 -11.385245 0.000000 0.000000 0.000000 2.437340 1.931276 1.124943 -4.164892 0.577680 -0.849228 1.403710 -3.245924 4.604431 0.072721 -0.066460 -0.003223 1.328178 -2.093064 4.893132 -0.027641 1.201725 -13.852374 0.000000 0.000000 0.000000 2.363483 -1.364600 2.472508 7.640720 0.825056 -3.669129 -23.656355 5.148422 -34.241275 -1.843898 -20.874549 -2.461981 0.000000 0.000000 0.000000 -0.990766 -0.242970 1.702642 12.394509 -5.262293 -2.058431 17.031398 -6.820466 -41.112036 -0.418039 27.342588 -3.630184 0.000000 0.000000 0.000000 
13.660944 81.882812 16.521601 179.739365 5.701042 179.838922 -4.057750 0.732118 11.292200 0.519630 3.667141 -23.899645 8.343523 8.475483 28.782612 -0.060373 -2.975655 -4.851570 0.000000 0.000000 0.000000 -0.168568 -3.597193 10.956632 1.165550 -7.497412 -18.984868 -0.909245 0.456350 29.677718 8.293528 6.889038 -11.265620 0.000000 0.000000 0.000000 2.453721 1.923268 1.204870 -4.091301 0.744291 -0.897891 1.395606 -3.186963 4.611844 0.060326 -0.020756 0.014526 1.252493 -2.163033 4.911441 -0.003834 0.667505 -13.455666 0.000000 0.000000 0.000000 2.319790 -1.348144 2.501639 7.667151 0.873820 -3.428454 -24.520470 5.484922 -33.040777 -1.030485 -22.764262 -1.630054 0.000000 0.000000 0.000000 -1.023427 -0.173414 1.690690 12.708802 -5.053216 -1.682807 17.644243 -7.076041 -40.770028 -0.504943 28.204645 -3.845271 0.000000 0.000000 0.000000 
13.843196 81.910583 16.574175 179.748791 5.491824 179.806738 -3.997176 0.628489 11.479377 0.626833 3.746062 -24.119302 8.306953 8.469809 28.869587 -0.076554 -3.043642 -4.770848 0.000000 0.000000 0.000000 -0.124939 -3.805193 11.117643 1.315592 -7.432961 -19.271664 -0.871927 0.517247 29.827569 8.138631 6.665755 -11.168607 0.000000 0.000000 0.000000 2.539253 1.842914 1.332015 -4.125446 0.837123 -0.886045 1.383982 -3.181385 4.668881 0.036225 -0.039874 -0.009463 1.313710 -2.107012 4.760066 0.277401 -1.470208 -13.212772 0.000000 0.000000 0.000000 2.386857 -1.325482 2.382766 7.753112 0.961869 -3.097947 -25.767946 5.912376 -31.571098 0.074714 -26.940421 -0.885282 0.000000 0.000000 0.000000 -0.971933 -0.157789 1.610389 13.098997 -4.960469 -1.380132 18.638531 -7.530854 -40.184694 -0.525696 29.716377 -4.000427 0.000000 0.000000 0.000000 
